{
    "asset" : {
        "generator" : "Khronos glTF Blender I/O v1.5.17",
        "version" : "2.0"
    },
    "scene" : 0,
    "scenes" : [
        {
            "name" : "Scene",
            "nodes" : [
                0,
                1
            ]
        }
    ],
    "nodes" : [
        {
            "mesh" : 0,
            "name" : "model1.325",
            "rotation" : [
                0.7071068286895752,
                0,
                0,
                0.7071067094802856
            ]
        },
        {
            "mesh" : 1,
            "name" : "model1.324",
            "rotation" : [
                0.7071068286895752,
                0,
                0,
                0.7071067094802856
            ]
        }
    ],
    "materials" : [
        {
            "doubleSided" : true,
            "name" : "red",
            "pbrMetallicRoughness" : {
                "baseColorFactor" : [
                    1,
                    0.010959945619106293,
                    0.010960118845105171,
                    1
                ],
                "metallicFactor" : 0.5,
                "roughnessFactor" : 0.5
            }
        },
        {
            "doubleSided" : true,
            "name" : "stump",
            "pbrMetallicRoughness" : {
                "baseColorFactor" : [
                    0.07421360164880753,
                    0.045186225324869156,
                    0.02732088975608349,
                    1
                ],
                "metallicFactor" : 0.5,
                "roughnessFactor" : 0.5
            }
        }
    ],
    "meshes" : [
        {
            "name" : "model1.325",
            "primitives" : [
                {
                    "attributes" : {
                        "POSITION" : 0,
                        "NORMAL" : 1,
                        "TEXCOORD_0" : 2
                    },
                    "indices" : 3,
                    "material" : 0
                }
            ]
        },
        {
            "name" : "model1.324",
            "primitives" : [
                {
                    "attributes" : {
                        "POSITION" : 4,
                        "NORMAL" : 5,
                        "TEXCOORD_0" : 6
                    },
                    "indices" : 7,
                    "material" : 1
                }
            ]
        }
    ],
    "accessors" : [
        {
            "bufferView" : 0,
            "componentType" : 5126,
            "count" : 340,
            "max" : [
                54.661014556884766,
                -15.230897903442383,
                -8.84939193725586
            ],
            "min" : [
                52.61427307128906,
                -17.17746353149414,
                -10.602291107177734
            ],
            "type" : "VEC3"
        },
        {
            "bufferView" : 1,
            "componentType" : 5126,
            "count" : 340,
            "type" : "VEC3"
        },
        {
            "bufferView" : 2,
            "componentType" : 5126,
            "count" : 340,
            "type" : "VEC2"
        },
        {
            "bufferView" : 3,
            "componentType" : 5123,
            "count" : 480,
            "type" : "SCALAR"
        },
        {
            "bufferView" : 4,
            "componentType" : 5126,
            "count" : 102,
            "max" : [
                53.78375244140625,
                -16.065223693847656,
                -10.486401557922363
            ],
            "min" : [
                53.491539001464844,
                -16.343135833740234,
                -11.038026809692383
            ],
            "type" : "VEC3"
        },
        {
            "bufferView" : 5,
            "componentType" : 5126,
            "count" : 102,
            "type" : "VEC3"
        },
        {
            "bufferView" : 6,
            "componentType" : 5126,
            "count" : 102,
            "type" : "VEC2"
        },
        {
            "bufferView" : 7,
            "componentType" : 5123,
            "count" : 180,
            "type" : "SCALAR"
        }
    ],
    "bufferViews" : [
        {
            "buffer" : 0,
            "byteLength" : 4080,
            "byteOffset" : 0
        },
        {
            "buffer" : 0,
            "byteLength" : 4080,
            "byteOffset" : 4080
        },
        {
            "buffer" : 0,
            "byteLength" : 2720,
            "byteOffset" : 8160
        },
        {
            "buffer" : 0,
            "byteLength" : 960,
            "byteOffset" : 10880
        },
        {
            "buffer" : 0,
            "byteLength" : 1224,
            "byteOffset" : 11840
        },
        {
            "buffer" : 0,
            "byteLength" : 1224,
            "byteOffset" : 13064
        },
        {
            "buffer" : 0,
            "byteLength" : 816,
            "byteOffset" : 14288
        },
        {
            "buffer" : 0,
            "byteLength" : 360,
            "byteOffset" : 15104
        }
    ],
    "buffers" : [
        {
            "byteLength" : 15464,
            "uri" : "data:application/octet-stream;base64,"
        }
    ]
}
