{
    "asset" : {
        "generator" : "Khronos glTF Blender I/O v1.5.17",
        "version" : "2.0"
    },
    "scene" : 0,
    "scenes" : [
        {
            "name" : "Scene",
            "nodes" : [
                0,
                1
            ]
        }
    ],
    "nodes" : [
        {
            "mesh" : 0,
            "name" : "Cube.005_Cube.006",
            "rotation" : [
                0.15796370804309845,
                -0.6892368197441101,
                0.6892369389533997,
                0.15796367824077606
            ],
            "translation" : [
                76.16911315917969,
                -11.856975555419922,
                -32.69757080078125
            ]
        },
        {
            "mesh" : 1,
            "name" : "Cube.006_Cube.006",
            "rotation" : [
                0.15796370804309845,
                -0.6892368197441101,
                0.6892369389533997,
                0.15796367824077606
            ],
            "translation" : [
                76.16911315917969,
                -11.856975555419922,
                -32.69757080078125
            ]
        }
    ],
    "materials" : [
        {
            "doubleSided" : true,
            "name" : "dotori.006",
            "pbrMetallicRoughness" : {
                "baseColorFactor" : [
                    0.19461789727210999,
                    0.08865559101104736,
                    0.034339822828769684,
                    1
                ],
                "metallicFactor" : 0.5,
                "roughnessFactor" : 0.5
            }
        },
        {
            "doubleSided" : true,
            "name" : "dotorihat.006",
            "pbrMetallicRoughness" : {
                "baseColorFactor" : [
                    0.07421360164880753,
                    0.045186225324869156,
                    0.02732088975608349,
                    1
                ],
                "metallicFactor" : 0.5,
                "roughnessFactor" : 0.5
            }
        }
    ],
    "meshes" : [
        {
            "name" : "Cube.005_Cube.006",
            "primitives" : [
                {
                    "attributes" : {
                        "POSITION" : 0,
                        "NORMAL" : 1,
                        "TEXCOORD_0" : 2
                    },
                    "indices" : 3,
                    "material" : 0
                }
            ]
        },
        {
            "name" : "Cube.006_Cube.006",
            "primitives" : [
                {
                    "attributes" : {
                        "POSITION" : 4,
                        "NORMAL" : 5,
                        "TEXCOORD_0" : 6
                    },
                    "indices" : 7,
                    "material" : 1
                }
            ]
        }
    ],
    "accessors" : [
        {
            "bufferView" : 0,
            "componentType" : 5126,
            "count" : 248,
            "max" : [
                151.41383361816406,
                1.581246018409729,
                -0.6482719779014587
            ],
            "min" : [
                149.136962890625,
                -0.34188100695610046,
                -2.571398973464966
            ],
            "type" : "VEC3"
        },
        {
            "bufferView" : 1,
            "componentType" : 5126,
            "count" : 248,
            "type" : "VEC3"
        },
        {
            "bufferView" : 2,
            "componentType" : 5126,
            "count" : 248,
            "type" : "VEC2"
        },
        {
            "bufferView" : 3,
            "componentType" : 5123,
            "count" : 384,
            "type" : "SCALAR"
        },
        {
            "bufferView" : 4,
            "componentType" : 5126,
            "count" : 320,
            "max" : [
                152.13870239257812,
                1.6385289430618286,
                -0.5909879803657532
            ],
            "min" : [
                150.98312377929688,
                -0.39916500449180603,
                -2.6286818981170654
            ],
            "type" : "VEC3"
        },
        {
            "bufferView" : 5,
            "componentType" : 5126,
            "count" : 320,
            "type" : "VEC3"
        },
        {
            "bufferView" : 6,
            "componentType" : 5126,
            "count" : 320,
            "type" : "VEC2"
        },
        {
            "bufferView" : 7,
            "componentType" : 5123,
            "count" : 522,
            "type" : "SCALAR"
        }
    ],
    "bufferViews" : [
        {
            "buffer" : 0,
            "byteLength" : 2976,
            "byteOffset" : 0
        },
        {
            "buffer" : 0,
            "byteLength" : 2976,
            "byteOffset" : 2976
        },
        {
            "buffer" : 0,
            "byteLength" : 1984,
            "byteOffset" : 5952
        },
        {
            "buffer" : 0,
            "byteLength" : 768,
            "byteOffset" : 7936
        },
        {
            "buffer" : 0,
            "byteLength" : 3840,
            "byteOffset" : 8704
        },
        {
            "buffer" : 0,
            "byteLength" : 3840,
            "byteOffset" : 12544
        },
        {
            "buffer" : 0,
            "byteLength" : 2560,
            "byteOffset" : 16384
        },
        {
            "buffer" : 0,
            "byteLength" : 1044,
            "byteOffset" : 18944
        }
    ],
    "buffers" : [
        {
            "byteLength" : 19988,
            "uri" : "data:application/octet-stream;base64,"
        }
    ]
}
