{
    "asset" : {
        "generator" : "Khronos glTF Blender I/O v1.5.17",
        "version" : "2.0"
    },
    "scene" : 0,
    "scenes" : [
        {
            "name" : "Scene",
            "nodes" : [
                0,
                1
            ]
        }
    ],
    "nodes" : [
        {
            "mesh" : 0,
            "name" : "model1.358",
            "rotation" : [
                0.7071068286895752,
                0,
                0,
                0.7071067094802856
            ],
            "scale" : [
                0.13863462209701538,
                0.13863462209701538,
                0.13863462209701538
            ],
            "translation" : [
                44.42997741699219,
                0.4760141670703888,
                10.433932304382324
            ]
        },
        {
            "mesh" : 1,
            "name" : "model1.359",
            "rotation" : [
                0.7071068286895752,
                0,
                0,
                0.7071067094802856
            ],
            "scale" : [
                0.13863462209701538,
                0.13863462209701538,
                0.13863462209701538
            ],
            "translation" : [
                44.42997741699219,
                0.4760141670703888,
                10.433932304382324
            ]
        }
    ],
    "materials" : [
        {
            "doubleSided" : true,
            "name" : "stump2",
            "pbrMetallicRoughness" : {
                "baseColorFactor" : [
                    0.7758225798606873,
                    0.3813260495662689,
                    0.1714411973953247,
                    1
                ],
                "metallicFactor" : 0.5,
                "roughnessFactor" : 0.5
            }
        },
        {
            "doubleSided" : true,
            "name" : "pink",
            "pbrMetallicRoughness" : {
                "baseColorFactor" : [
                    0.9559733867645264,
                    0.2225402593612671,
                    0.24692833423614502,
                    1
                ],
                "metallicFactor" : 0.5,
                "roughnessFactor" : 0.5
            }
        }
    ],
    "meshes" : [
        {
            "name" : "model1.358",
            "primitives" : [
                {
                    "attributes" : {
                        "POSITION" : 0,
                        "NORMAL" : 1,
                        "TEXCOORD_0" : 2
                    },
                    "indices" : 3,
                    "material" : 0
                }
            ]
        },
        {
            "name" : "model1.359",
            "primitives" : [
                {
                    "attributes" : {
                        "POSITION" : 4,
                        "NORMAL" : 5,
                        "TEXCOORD_0" : 6
                    },
                    "indices" : 7,
                    "material" : 1
                }
            ]
        }
    ],
    "accessors" : [
        {
            "bufferView" : 0,
            "componentType" : 5126,
            "count" : 400,
            "max" : [
                -291.0942687988281,
                8.184528350830078,
                39.92053985595703
            ],
            "min" : [
                -308.30572509765625,
                -8.184528350830078,
                34.04134750366211
            ],
            "type" : "VEC3"
        },
        {
            "bufferView" : 1,
            "componentType" : 5126,
            "count" : 400,
            "type" : "VEC3"
        },
        {
            "bufferView" : 2,
            "componentType" : 5126,
            "count" : 400,
            "type" : "VEC2"
        },
        {
            "bufferView" : 3,
            "componentType" : 5123,
            "count" : 600,
            "type" : "SCALAR"
        },
        {
            "bufferView" : 4,
            "componentType" : 5126,
            "count" : 594,
            "max" : [
                -290.7788391113281,
                8.484528541564941,
                37.88932800292969
            ],
            "min" : [
                -308.62115478515625,
                -8.484528541564941,
                33.72432327270508
            ],
            "type" : "VEC3"
        },
        {
            "bufferView" : 5,
            "componentType" : 5126,
            "count" : 594,
            "type" : "VEC3"
        },
        {
            "bufferView" : 6,
            "componentType" : 5126,
            "count" : 594,
            "type" : "VEC2"
        },
        {
            "bufferView" : 7,
            "componentType" : 5123,
            "count" : 972,
            "type" : "SCALAR"
        }
    ],
    "bufferViews" : [
        {
            "buffer" : 0,
            "byteLength" : 4800,
            "byteOffset" : 0
        },
        {
            "buffer" : 0,
            "byteLength" : 4800,
            "byteOffset" : 4800
        },
        {
            "buffer" : 0,
            "byteLength" : 3200,
            "byteOffset" : 9600
        },
        {
            "buffer" : 0,
            "byteLength" : 1200,
            "byteOffset" : 12800
        },
        {
            "buffer" : 0,
            "byteLength" : 7128,
            "byteOffset" : 14000
        },
        {
            "buffer" : 0,
            "byteLength" : 7128,
            "byteOffset" : 21128
        },
        {
            "buffer" : 0,
            "byteLength" : 4752,
            "byteOffset" : 28256
        },
        {
            "buffer" : 0,
            "byteLength" : 1944,
            "byteOffset" : 33008
        }
    ],
    "buffers" : [
        {
            "byteLength" : 34952,
            "uri" : "data:application/octet-stream;base64,"
        }
    ]
}
