{
    "asset" : {
        "generator" : "Khronos glTF Blender I/O v1.5.17",
        "version" : "2.0"
    },
    "scene" : 0,
    "scenes" : [
        {
            "name" : "Scene",
            "nodes" : [
                0,
                1,
                2,
                3,
                4,
                5
            ]
        }
    ],
    "nodes" : [
        {
            "mesh" : 0,
            "name" : "ornament_2_Cylinder.008",
            "rotation" : [
                0.7071068286895752,
                0,
                0,
                0.7071067094802856
            ],
            "translation" : [
                -40.70044708251953,
                9.75766658782959,
                12.090300559997559
            ]
        },
        {
            "mesh" : 1,
            "name" : "ornament_Icosphere.008",
            "rotation" : [
                0.7071068286895752,
                0,
                0,
                0.7071067094802856
            ],
            "translation" : [
                -40.70044708251953,
                9.75766658782959,
                12.090300559997559
            ]
        },
        {
            "mesh" : 2,
            "name" : "ornament_2_Cylinder.006",
            "rotation" : [
                0.7071068286895752,
                0,
                0,
                0.7071067094802856
            ],
            "translation" : [
                -35.59928512573242,
                4.108977317810059,
                16.459941864013672
            ]
        },
        {
            "mesh" : 3,
            "name" : "ornament_Icosphere.020",
            "rotation" : [
                0.7071068286895752,
                0,
                0,
                0.7071067094802856
            ],
            "translation" : [
                -35.59928512573242,
                4.108977317810059,
                16.459941864013672
            ]
        },
        {
            "mesh" : 4,
            "name" : "ornament_2_Cylinder.019",
            "rotation" : [
                0.7071068286895752,
                0,
                0,
                0.7071067094802856
            ],
            "translation" : [
                -40.500431060791016,
                9.913812637329102,
                27.645174026489258
            ]
        },
        {
            "mesh" : 5,
            "name" : "ornament_Icosphere.044",
            "rotation" : [
                0.7071068286895752,
                0,
                0,
                0.7071067094802856
            ],
            "translation" : [
                -40.500431060791016,
                9.913812637329102,
                27.645174026489258
            ]
        }
    ],
    "materials" : [
        {
            "doubleSided" : true,
            "name" : "brown",
            "pbrMetallicRoughness" : {
                "baseColorFactor" : [
                    0.07421360164880753,
                    0.045186225324869156,
                    0.02732088975608349,
                    1
                ],
                "metallicFactor" : 0.5,
                "roughnessFactor" : 0.5
            }
        },
        {
            "doubleSided" : true,
            "name" : "blue.004",
            "pbrMetallicRoughness" : {
                "baseColorFactor" : [
                    0,
                    0.124771848320961,
                    0.28314879536628723,
                    1
                ],
                "metallicFactor" : 0.5,
                "roughnessFactor" : 0.5
            }
        },
        {
            "doubleSided" : true,
            "name" : "brown.001",
            "pbrMetallicRoughness" : {
                "baseColorFactor" : [
                    0.07421360164880753,
                    0.045186225324869156,
                    0.02732088975608349,
                    1
                ],
                "metallicFactor" : 0.5,
                "roughnessFactor" : 0.5
            }
        },
        {
            "doubleSided" : true,
            "name" : "brown.002",
            "pbrMetallicRoughness" : {
                "baseColorFactor" : [
                    0.07421360164880753,
                    0.045186225324869156,
                    0.02732088975608349,
                    1
                ],
                "metallicFactor" : 0.5,
                "roughnessFactor" : 0.5
            }
        }
    ],
    "meshes" : [
        {
            "name" : "ornament_2_Cylinder.008",
            "primitives" : [
                {
                    "attributes" : {
                        "POSITION" : 0,
                        "NORMAL" : 1,
                        "TEXCOORD_0" : 2
                    },
                    "indices" : 3,
                    "material" : 0
                }
            ]
        },
        {
            "name" : "ornament_Icosphere.008",
            "primitives" : [
                {
                    "attributes" : {
                        "POSITION" : 4,
                        "NORMAL" : 5,
                        "TEXCOORD_0" : 6
                    },
                    "indices" : 7,
                    "material" : 1
                }
            ]
        },
        {
            "name" : "ornament_2_Cylinder.006",
            "primitives" : [
                {
                    "attributes" : {
                        "POSITION" : 8,
                        "NORMAL" : 9,
                        "TEXCOORD_0" : 10
                    },
                    "indices" : 3,
                    "material" : 2
                }
            ]
        },
        {
            "name" : "ornament_Icosphere.020",
            "primitives" : [
                {
                    "attributes" : {
                        "POSITION" : 11,
                        "NORMAL" : 12,
                        "TEXCOORD_0" : 13
                    },
                    "indices" : 7,
                    "material" : 1
                }
            ]
        },
        {
            "name" : "ornament_2_Cylinder.019",
            "primitives" : [
                {
                    "attributes" : {
                        "POSITION" : 14,
                        "NORMAL" : 15,
                        "TEXCOORD_0" : 16
                    },
                    "indices" : 3,
                    "material" : 3
                }
            ]
        },
        {
            "name" : "ornament_Icosphere.044",
            "primitives" : [
                {
                    "attributes" : {
                        "POSITION" : 17,
                        "NORMAL" : 18,
                        "TEXCOORD_0" : 19
                    },
                    "indices" : 7,
                    "material" : 1
                }
            ]
        }
    ],
    "accessors" : [
        {
            "bufferView" : 0,
            "componentType" : 5126,
            "count" : 36,
            "max" : [
                56.25395965576172,
                7.103662967681885,
                -3.7406930923461914
            ],
            "min" : [
                55.94117736816406,
                6.742496013641357,
                -4.101860046386719
            ],
            "type" : "VEC3"
        },
        {
            "bufferView" : 1,
            "componentType" : 5126,
            "count" : 36,
            "type" : "VEC3"
        },
        {
            "bufferView" : 2,
            "componentType" : 5126,
            "count" : 36,
            "type" : "VEC2"
        },
        {
            "bufferView" : 3,
            "componentType" : 5123,
            "count" : 60,
            "type" : "SCALAR"
        },
        {
            "bufferView" : 4,
            "componentType" : 5126,
            "count" : 2548,
            "max" : [
                56.95613479614258,
                7.826406002044678,
                -2.0789949893951416
            ],
            "min" : [
                55.18365478515625,
                5.962714195251465,
                -3.942686080932617
            ],
            "type" : "VEC3"
        },
        {
            "bufferView" : 5,
            "componentType" : 5126,
            "count" : 2548,
            "type" : "VEC3"
        },
        {
            "bufferView" : 6,
            "componentType" : 5126,
            "count" : 2548,
            "type" : "VEC2"
        },
        {
            "bufferView" : 7,
            "componentType" : 5123,
            "count" : 3702,
            "type" : "SCALAR"
        },
        {
            "bufferView" : 8,
            "componentType" : 5126,
            "count" : 36,
            "max" : [
                56.25395965576172,
                7.103662967681885,
                -3.7406930923461914
            ],
            "min" : [
                55.94117736816406,
                6.742496013641357,
                -4.101860046386719
            ],
            "type" : "VEC3"
        },
        {
            "bufferView" : 9,
            "componentType" : 5126,
            "count" : 36,
            "type" : "VEC3"
        },
        {
            "bufferView" : 10,
            "componentType" : 5126,
            "count" : 36,
            "type" : "VEC2"
        },
        {
            "bufferView" : 11,
            "componentType" : 5126,
            "count" : 2548,
            "max" : [
                56.95613479614258,
                7.826406002044678,
                -2.0789949893951416
            ],
            "min" : [
                55.18365478515625,
                5.962714195251465,
                -3.942686080932617
            ],
            "type" : "VEC3"
        },
        {
            "bufferView" : 12,
            "componentType" : 5126,
            "count" : 2548,
            "type" : "VEC3"
        },
        {
            "bufferView" : 13,
            "componentType" : 5126,
            "count" : 2548,
            "type" : "VEC2"
        },
        {
            "bufferView" : 14,
            "componentType" : 5126,
            "count" : 36,
            "max" : [
                56.25395965576172,
                7.103662967681885,
                -3.7406930923461914
            ],
            "min" : [
                55.94117736816406,
                6.742496013641357,
                -4.101860046386719
            ],
            "type" : "VEC3"
        },
        {
            "bufferView" : 15,
            "componentType" : 5126,
            "count" : 36,
            "type" : "VEC3"
        },
        {
            "bufferView" : 16,
            "componentType" : 5126,
            "count" : 36,
            "type" : "VEC2"
        },
        {
            "bufferView" : 17,
            "componentType" : 5126,
            "count" : 2548,
            "max" : [
                56.95613479614258,
                7.826406002044678,
                -2.0789949893951416
            ],
            "min" : [
                55.18365478515625,
                5.962714195251465,
                -3.942686080932617
            ],
            "type" : "VEC3"
        },
        {
            "bufferView" : 18,
            "componentType" : 5126,
            "count" : 2548,
            "type" : "VEC3"
        },
        {
            "bufferView" : 19,
            "componentType" : 5126,
            "count" : 2548,
            "type" : "VEC2"
        }
    ],
    "bufferViews" : [
        {
            "buffer" : 0,
            "byteLength" : 432,
            "byteOffset" : 0
        },
        {
            "buffer" : 0,
            "byteLength" : 432,
            "byteOffset" : 432
        },
        {
            "buffer" : 0,
            "byteLength" : 288,
            "byteOffset" : 864
        },
        {
            "buffer" : 0,
            "byteLength" : 120,
            "byteOffset" : 1152
        },
        {
            "buffer" : 0,
            "byteLength" : 30576,
            "byteOffset" : 1272
        },
        {
            "buffer" : 0,
            "byteLength" : 30576,
            "byteOffset" : 31848
        },
        {
            "buffer" : 0,
            "byteLength" : 20384,
            "byteOffset" : 62424
        },
        {
            "buffer" : 0,
            "byteLength" : 7404,
            "byteOffset" : 82808
        },
        {
            "buffer" : 0,
            "byteLength" : 432,
            "byteOffset" : 90212
        },
        {
            "buffer" : 0,
            "byteLength" : 432,
            "byteOffset" : 90644
        },
        {
            "buffer" : 0,
            "byteLength" : 288,
            "byteOffset" : 91076
        },
        {
            "buffer" : 0,
            "byteLength" : 30576,
            "byteOffset" : 91364
        },
        {
            "buffer" : 0,
            "byteLength" : 30576,
            "byteOffset" : 121940
        },
        {
            "buffer" : 0,
            "byteLength" : 20384,
            "byteOffset" : 152516
        },
        {
            "buffer" : 0,
            "byteLength" : 432,
            "byteOffset" : 172900
        },
        {
            "buffer" : 0,
            "byteLength" : 432,
            "byteOffset" : 173332
        },
        {
            "buffer" : 0,
            "byteLength" : 288,
            "byteOffset" : 173764
        },
        {
            "buffer" : 0,
            "byteLength" : 30576,
            "byteOffset" : 174052
        },
        {
            "buffer" : 0,
            "byteLength" : 30576,
            "byteOffset" : 204628
        },
        {
            "buffer" : 0,
            "byteLength" : 20384,
            "byteOffset" : 235204
        }
    ],
    "buffers" : [
        {
            "byteLength" : 255588,
            "uri" : "data:application/octet-stream;base64,"
        }
    ]
}
