{
    "asset" : {
        "generator" : "Khronos glTF Blender I/O v1.5.17",
        "version" : "2.0"
    },
    "scene" : 0,
    "scenes" : [
        {
            "name" : "Scene",
            "nodes" : [
                0,
                1
            ]
        }
    ],
    "nodes" : [
        {
            "mesh" : 0,
            "name" : "Cube.001_Cube.004",
            "rotation" : [
                -0.06890573352575302,
                -0.6126626133918762,
                0.6862207055091858,
                -0.38600218296051025
            ],
            "scale" : [
                0.4106277823448181,
                0.4106278121471405,
                0.4106277823448181
            ],
            "translation" : [
                52.063209533691406,
                20.39108657836914,
                59.90738296508789
            ]
        },
        {
            "mesh" : 1,
            "name" : "Cube.002_Cube.003",
            "rotation" : [
                -0.06890573352575302,
                -0.6126626133918762,
                0.6862207055091858,
                -0.38600218296051025
            ],
            "scale" : [
                0.4106277823448181,
                0.4106278121471405,
                0.4106277823448181
            ],
            "translation" : [
                52.063209533691406,
                20.39108657836914,
                59.90738296508789
            ]
        }
    ],
    "materials" : [
        {
            "doubleSided" : true,
            "name" : "green.001",
            "pbrMetallicRoughness" : {
                "baseColorFactor" : [
                    0.03310477361083031,
                    0.2158605307340622,
                    0.005181523039937019,
                    1
                ],
                "metallicFactor" : 0.5,
                "roughnessFactor" : 0.5
            }
        },
        {
            "doubleSided" : true,
            "name" : "snow.003",
            "pbrMetallicRoughness" : {
                "baseColorFactor" : [
                    1,
                    1,
                    1,
                    1
                ],
                "metallicFactor" : 0.5,
                "roughnessFactor" : 0.5
            }
        }
    ],
    "meshes" : [
        {
            "name" : "Cube.001_Cube.006",
            "primitives" : [
                {
                    "attributes" : {
                        "POSITION" : 0,
                        "NORMAL" : 1,
                        "TEXCOORD_0" : 2
                    },
                    "indices" : 3,
                    "material" : 0
                }
            ]
        },
        {
            "name" : "Cube.002_Cube.006",
            "primitives" : [
                {
                    "attributes" : {
                        "POSITION" : 4,
                        "NORMAL" : 5,
                        "TEXCOORD_0" : 6
                    },
                    "indices" : 7,
                    "material" : 1
                }
            ]
        }
    ],
    "accessors" : [
        {
            "bufferView" : 0,
            "componentType" : 5126,
            "count" : 308,
            "max" : [
                135.08914184570312,
                1.3199659585952759,
                4.397417068481445
            ],
            "min" : [
                131.80148315429688,
                -6.224434852600098,
                -3.1987719535827637
            ],
            "type" : "VEC3"
        },
        {
            "bufferView" : 1,
            "componentType" : 5126,
            "count" : 308,
            "type" : "VEC3"
        },
        {
            "bufferView" : 2,
            "componentType" : 5126,
            "count" : 308,
            "type" : "VEC2"
        },
        {
            "bufferView" : 3,
            "componentType" : 5123,
            "count" : 474,
            "type" : "SCALAR"
        },
        {
            "bufferView" : 4,
            "componentType" : 5126,
            "count" : 320,
            "max" : [
                135.22381591796875,
                1.5424089431762695,
                -3.1598548889160156
            ],
            "min" : [
                131.66680908203125,
                -4.874398231506348,
                -5.089288234710693
            ],
            "type" : "VEC3"
        },
        {
            "bufferView" : 5,
            "componentType" : 5126,
            "count" : 320,
            "type" : "VEC3"
        },
        {
            "bufferView" : 6,
            "componentType" : 5126,
            "count" : 320,
            "type" : "VEC2"
        },
        {
            "bufferView" : 7,
            "componentType" : 5123,
            "count" : 546,
            "type" : "SCALAR"
        }
    ],
    "bufferViews" : [
        {
            "buffer" : 0,
            "byteLength" : 3696,
            "byteOffset" : 0
        },
        {
            "buffer" : 0,
            "byteLength" : 3696,
            "byteOffset" : 3696
        },
        {
            "buffer" : 0,
            "byteLength" : 2464,
            "byteOffset" : 7392
        },
        {
            "buffer" : 0,
            "byteLength" : 948,
            "byteOffset" : 9856
        },
        {
            "buffer" : 0,
            "byteLength" : 3840,
            "byteOffset" : 10804
        },
        {
            "buffer" : 0,
            "byteLength" : 3840,
            "byteOffset" : 14644
        },
        {
            "buffer" : 0,
            "byteLength" : 2560,
            "byteOffset" : 18484
        },
        {
            "buffer" : 0,
            "byteLength" : 1092,
            "byteOffset" : 21044
        }
    ],
    "buffers" : [
        {
            "byteLength" : 22136,
            "uri" : "data:application/octet-stream;base64,"
        }
    ]
}
