# Blender v2.92.0 OBJ File: 'grass.blend'
# www.blender.org
mtllib mat.mtl
o Cube.002_Cube.003
v -7.287213 -6.272859 19.399849
v -7.287213 -5.169565 19.399849
v -7.287213 -6.272859 -17.619587
v -7.287213 -5.169565 -17.619587
v 29.732224 -6.272859 19.399849
v 29.732224 -5.169565 19.399849
v 29.732224 -6.272859 -17.619587
v 29.732224 -5.169565 -17.619587
vt 0.375000 0.000000
vt 0.625000 0.000000
vt 0.625000 0.250000
vt 0.375000 0.250000
vt 0.625000 0.500000
vt 0.375000 0.500000
vt 0.625000 0.750000
vt 0.375000 0.750000
vt 0.625000 1.000000
vt 0.375000 1.000000
vt 0.125000 0.500000
vt 0.125000 0.750000
vt 0.875000 0.500000
vt 0.875000 0.750000
vn -1.0000 0.0000 0.0000
vn 0.0000 0.0000 -1.0000
vn 1.0000 0.0000 0.0000
vn 0.0000 0.0000 1.0000
vn 0.0000 -1.0000 0.0000
vn 0.0000 1.0000 0.0000
usemtl None
s off
f 1/1/1 2/2/1 4/3/1 3/4/1
f 3/4/2 4/3/2 8/5/2 7/6/2
f 7/6/3 8/5/3 6/7/3 5/8/3
f 5/8/4 6/7/4 2/9/4 1/10/4
f 3/11/5 7/6/5 5/8/5 1/12/5
f 8/5/6 4/13/6 2/14/6 6/7/6
