{
    "asset" : {
        "generator" : "Khronos glTF Blender I/O v1.5.17",
        "version" : "2.0"
    },
    "scene" : 0,
    "scenes" : [
        {
            "name" : "Scene",
            "nodes" : [
                0,
                1,
                2
            ]
        }
    ],
    "nodes" : [
        {
            "mesh" : 0,
            "name" : "ornament_1_Cylinder.007",
            "rotation" : [
                0.7071068286895752,
                0,
                0,
                0.7071067094802856
            ]
        },
        {
            "mesh" : 1,
            "name" : "ornament_2_Cylinder.006",
            "rotation" : [
                0.7071068286895752,
                0,
                0,
                0.7071067094802856
            ]
        },
        {
            "mesh" : 2,
            "name" : "ornament_Icosphere.006",
            "rotation" : [
                0.7071068286895752,
                0,
                0,
                0.7071067094802856
            ]
        }
    ],
    "materials" : [
        {
            "doubleSided" : true,
            "name" : "brown.001",
            "pbrMetallicRoughness" : {
                "baseColorFactor" : [
                    0.07421360164880753,
                    0.045186225324869156,
                    0.02732088975608349,
                    1
                ],
                "metallicFactor" : 0.5,
                "roughnessFactor" : 0.5
            }
        },
        {
            "doubleSided" : true,
            "name" : "blue.007",
            "pbrMetallicRoughness" : {
                "baseColorFactor" : [
                    0,
                    0.124771848320961,
                    0.28314879536628723,
                    1
                ],
                "metallicFactor" : 0.5,
                "roughnessFactor" : 0.5
            }
        }
    ],
    "meshes" : [
        {
            "name" : "ornament_1_Cylinder.007",
            "primitives" : [
                {
                    "attributes" : {
                        "POSITION" : 0,
                        "NORMAL" : 1,
                        "TEXCOORD_0" : 2
                    },
                    "indices" : 3,
                    "material" : 0
                }
            ]
        },
        {
            "name" : "ornament_2_Cylinder.006",
            "primitives" : [
                {
                    "attributes" : {
                        "POSITION" : 4,
                        "NORMAL" : 5,
                        "TEXCOORD_0" : 6
                    },
                    "indices" : 7,
                    "material" : 0
                }
            ]
        },
        {
            "name" : "ornament_Icosphere.006",
            "primitives" : [
                {
                    "attributes" : {
                        "POSITION" : 8,
                        "NORMAL" : 9,
                        "TEXCOORD_0" : 10
                    },
                    "indices" : 11,
                    "material" : 1
                }
            ]
        }
    ],
    "accessors" : [
        {
            "bufferView" : 0,
            "componentType" : 5126,
            "count" : 44,
            "max" : [
                57.210533142089844,
                2.2857439517974854,
                -7.809654235839844
            ],
            "min" : [
                57.073570251464844,
                2.1275899410247803,
                -7.929856777191162
            ],
            "type" : "VEC3"
        },
        {
            "bufferView" : 1,
            "componentType" : 5126,
            "count" : 44,
            "type" : "VEC3"
        },
        {
            "bufferView" : 2,
            "componentType" : 5126,
            "count" : 44,
            "type" : "VEC2"
        },
        {
            "bufferView" : 3,
            "componentType" : 5123,
            "count" : 60,
            "type" : "SCALAR"
        },
        {
            "bufferView" : 4,
            "componentType" : 5126,
            "count" : 50,
            "max" : [
                57.29844284057617,
                2.3872509002685547,
                -7.458737850189209
            ],
            "min" : [
                56.985660552978516,
                2.0260839462280273,
                -7.819904804229736
            ],
            "type" : "VEC3"
        },
        {
            "bufferView" : 5,
            "componentType" : 5126,
            "count" : 50,
            "type" : "VEC3"
        },
        {
            "bufferView" : 6,
            "componentType" : 5126,
            "count" : 50,
            "type" : "VEC2"
        },
        {
            "bufferView" : 7,
            "componentType" : 5123,
            "count" : 60,
            "type" : "SCALAR"
        },
        {
            "bufferView" : 8,
            "componentType" : 5126,
            "count" : 3662,
            "max" : [
                58.00061798095703,
                3.1099929809570312,
                -5.797039985656738
            ],
            "min" : [
                56.2281379699707,
                1.2463010549545288,
                -7.660730838775635
            ],
            "type" : "VEC3"
        },
        {
            "bufferView" : 9,
            "componentType" : 5126,
            "count" : 3662,
            "type" : "VEC3"
        },
        {
            "bufferView" : 10,
            "componentType" : 5126,
            "count" : 3662,
            "type" : "VEC2"
        },
        {
            "bufferView" : 11,
            "componentType" : 5123,
            "count" : 3702,
            "type" : "SCALAR"
        }
    ],
    "bufferViews" : [
        {
            "buffer" : 0,
            "byteLength" : 528,
            "byteOffset" : 0
        },
        {
            "buffer" : 0,
            "byteLength" : 528,
            "byteOffset" : 528
        },
        {
            "buffer" : 0,
            "byteLength" : 352,
            "byteOffset" : 1056
        },
        {
            "buffer" : 0,
            "byteLength" : 120,
            "byteOffset" : 1408
        },
        {
            "buffer" : 0,
            "byteLength" : 600,
            "byteOffset" : 1528
        },
        {
            "buffer" : 0,
            "byteLength" : 600,
            "byteOffset" : 2128
        },
        {
            "buffer" : 0,
            "byteLength" : 400,
            "byteOffset" : 2728
        },
        {
            "buffer" : 0,
            "byteLength" : 120,
            "byteOffset" : 3128
        },
        {
            "buffer" : 0,
            "byteLength" : 43944,
            "byteOffset" : 3248
        },
        {
            "buffer" : 0,
            "byteLength" : 43944,
            "byteOffset" : 47192
        },
        {
            "buffer" : 0,
            "byteLength" : 29296,
            "byteOffset" : 91136
        },
        {
            "buffer" : 0,
            "byteLength" : 7404,
            "byteOffset" : 120432
        }
    ],
    "buffers" : [
        {
            "byteLength" : 127836,
            "uri" : "data:application/octet-stream;base64,"
        }
    ]
}
