{
    "asset" : {
        "generator" : "Khronos glTF Blender I/O v1.5.17",
        "version" : "2.0"
    },
    "scene" : 0,
    "scenes" : [
        {
            "name" : "Scene",
            "nodes" : [
                0,
                1,
                2
            ]
        }
    ],
    "nodes" : [
        {
            "mesh" : 0,
            "name" : "ornament_1_Cylinder.044",
            "rotation" : [
                0.7071068286895752,
                0,
                0,
                0.7071067094802856
            ]
        },
        {
            "mesh" : 1,
            "name" : "ornament_2_Cylinder.043",
            "rotation" : [
                0.7071068286895752,
                0,
                0,
                0.7071067094802856
            ]
        },
        {
            "mesh" : 2,
            "name" : "ornament_Icosphere.044",
            "rotation" : [
                0.7071068286895752,
                0,
                0,
                0.7071067094802856
            ]
        }
    ],
    "materials" : [
        {
            "doubleSided" : true,
            "name" : "brown",
            "pbrMetallicRoughness" : {
                "baseColorFactor" : [
                    0.07421360164880753,
                    0.045186225324869156,
                    0.02732088975608349,
                    1
                ],
                "metallicFactor" : 0.5,
                "roughnessFactor" : 0.5
            }
        },
        {
            "doubleSided" : true,
            "name" : "blue.007",
            "pbrMetallicRoughness" : {
                "baseColorFactor" : [
                    0,
                    0.124771848320961,
                    0.28314879536628723,
                    1
                ],
                "metallicFactor" : 0.5,
                "roughnessFactor" : 0.5
            }
        }
    ],
    "meshes" : [
        {
            "name" : "ornament_1_Cylinder.044",
            "primitives" : [
                {
                    "attributes" : {
                        "POSITION" : 0,
                        "NORMAL" : 1,
                        "TEXCOORD_0" : 2
                    },
                    "indices" : 3,
                    "material" : 0
                }
            ]
        },
        {
            "name" : "ornament_2_Cylinder.043",
            "primitives" : [
                {
                    "attributes" : {
                        "POSITION" : 4,
                        "NORMAL" : 5,
                        "TEXCOORD_0" : 6
                    },
                    "indices" : 7,
                    "material" : 0
                }
            ]
        },
        {
            "name" : "ornament_Icosphere.044",
            "primitives" : [
                {
                    "attributes" : {
                        "POSITION" : 8,
                        "NORMAL" : 9,
                        "TEXCOORD_0" : 10
                    },
                    "indices" : 11,
                    "material" : 1
                }
            ]
        }
    ],
    "accessors" : [
        {
            "bufferView" : 0,
            "componentType" : 5126,
            "count" : 44,
            "max" : [
                -78.7555160522461,
                -4.106022834777832,
                -10.362674713134766
            ],
            "min" : [
                -78.8924789428711,
                -4.264176845550537,
                -10.482877731323242
            ],
            "type" : "VEC3"
        },
        {
            "bufferView" : 1,
            "componentType" : 5126,
            "count" : 44,
            "type" : "VEC3"
        },
        {
            "bufferView" : 2,
            "componentType" : 5126,
            "count" : 44,
            "type" : "VEC2"
        },
        {
            "bufferView" : 3,
            "componentType" : 5123,
            "count" : 60,
            "type" : "SCALAR"
        },
        {
            "bufferView" : 4,
            "componentType" : 5126,
            "count" : 44,
            "max" : [
                -78.66761016845703,
                -4.004517078399658,
                -10.011758804321289
            ],
            "min" : [
                -78.98038482666016,
                -4.3656840324401855,
                -10.372925758361816
            ],
            "type" : "VEC3"
        },
        {
            "bufferView" : 5,
            "componentType" : 5126,
            "count" : 44,
            "type" : "VEC3"
        },
        {
            "bufferView" : 6,
            "componentType" : 5126,
            "count" : 44,
            "type" : "VEC2"
        },
        {
            "bufferView" : 7,
            "componentType" : 5123,
            "count" : 60,
            "type" : "SCALAR"
        },
        {
            "bufferView" : 8,
            "componentType" : 5126,
            "count" : 3658,
            "max" : [
                -77.9654312133789,
                -3.2817749977111816,
                -8.35006046295166
            ],
            "min" : [
                -79.73790740966797,
                -5.145465850830078,
                -10.213751792907715
            ],
            "type" : "VEC3"
        },
        {
            "bufferView" : 9,
            "componentType" : 5126,
            "count" : 3658,
            "type" : "VEC3"
        },
        {
            "bufferView" : 10,
            "componentType" : 5126,
            "count" : 3658,
            "type" : "VEC2"
        },
        {
            "bufferView" : 11,
            "componentType" : 5123,
            "count" : 3702,
            "type" : "SCALAR"
        }
    ],
    "bufferViews" : [
        {
            "buffer" : 0,
            "byteLength" : 528,
            "byteOffset" : 0
        },
        {
            "buffer" : 0,
            "byteLength" : 528,
            "byteOffset" : 528
        },
        {
            "buffer" : 0,
            "byteLength" : 352,
            "byteOffset" : 1056
        },
        {
            "buffer" : 0,
            "byteLength" : 120,
            "byteOffset" : 1408
        },
        {
            "buffer" : 0,
            "byteLength" : 528,
            "byteOffset" : 1528
        },
        {
            "buffer" : 0,
            "byteLength" : 528,
            "byteOffset" : 2056
        },
        {
            "buffer" : 0,
            "byteLength" : 352,
            "byteOffset" : 2584
        },
        {
            "buffer" : 0,
            "byteLength" : 120,
            "byteOffset" : 2936
        },
        {
            "buffer" : 0,
            "byteLength" : 43896,
            "byteOffset" : 3056
        },
        {
            "buffer" : 0,
            "byteLength" : 43896,
            "byteOffset" : 46952
        },
        {
            "buffer" : 0,
            "byteLength" : 29264,
            "byteOffset" : 90848
        },
        {
            "buffer" : 0,
            "byteLength" : 7404,
            "byteOffset" : 120112
        }
    ],
    "buffers" : [
        {
            "byteLength" : 127516,
            "uri" : "data:application/octet-stream;base64,"
        }
    ]
}
