{
    "asset" : {
        "generator" : "Khronos glTF Blender I/O v1.5.17",
        "version" : "2.0"
    },
    "scene" : 0,
    "scenes" : [
        {
            "name" : "Scene",
            "nodes" : [
                0,
                1,
                2
            ]
        }
    ],
    "nodes" : [
        {
            "mesh" : 0,
            "name" : "ornament_1_Cylinder.020",
            "rotation" : [
                0.7071068286895752,
                0,
                0,
                0.7071067094802856
            ]
        },
        {
            "mesh" : 1,
            "name" : "ornament_2_Cylinder.019",
            "rotation" : [
                0.7071068286895752,
                0,
                0,
                0.7071067094802856
            ]
        },
        {
            "mesh" : 2,
            "name" : "ornament_Icosphere.020",
            "rotation" : [
                0.7071068286895752,
                0,
                0,
                0.7071067094802856
            ]
        }
    ],
    "materials" : [
        {
            "doubleSided" : true,
            "name" : "brown.002",
            "pbrMetallicRoughness" : {
                "baseColorFactor" : [
                    0.07421360164880753,
                    0.045186225324869156,
                    0.02732088975608349,
                    1
                ],
                "metallicFactor" : 0.5,
                "roughnessFactor" : 0.5
            }
        },
        {
            "doubleSided" : true,
            "name" : "blue.007",
            "pbrMetallicRoughness" : {
                "baseColorFactor" : [
                    0,
                    0.124771848320961,
                    0.28314879536628723,
                    1
                ],
                "metallicFactor" : 0.5,
                "roughnessFactor" : 0.5
            }
        }
    ],
    "meshes" : [
        {
            "name" : "ornament_1_Cylinder.020",
            "primitives" : [
                {
                    "attributes" : {
                        "POSITION" : 0,
                        "NORMAL" : 1,
                        "TEXCOORD_0" : 2
                    },
                    "indices" : 3,
                    "material" : 0
                }
            ]
        },
        {
            "name" : "ornament_2_Cylinder.019",
            "primitives" : [
                {
                    "attributes" : {
                        "POSITION" : 4,
                        "NORMAL" : 5,
                        "TEXCOORD_0" : 6
                    },
                    "indices" : 7,
                    "material" : 0
                }
            ]
        },
        {
            "name" : "ornament_Icosphere.020",
            "primitives" : [
                {
                    "attributes" : {
                        "POSITION" : 8,
                        "NORMAL" : 9,
                        "TEXCOORD_0" : 10
                    },
                    "indices" : 11,
                    "material" : 1
                }
            ]
        }
    ],
    "accessors" : [
        {
            "bufferView" : 0,
            "componentType" : 5126,
            "count" : 53,
            "max" : [
                46.25639724731445,
                40.416385650634766,
                -5.695065021514893
            ],
            "min" : [
                46.15708923339844,
                40.30171585083008,
                -5.782219886779785
            ],
            "type" : "VEC3"
        },
        {
            "bufferView" : 1,
            "componentType" : 5126,
            "count" : 53,
            "type" : "VEC3"
        },
        {
            "bufferView" : 2,
            "componentType" : 5126,
            "count" : 53,
            "type" : "VEC2"
        },
        {
            "bufferView" : 3,
            "componentType" : 5123,
            "count" : 60,
            "type" : "SCALAR"
        },
        {
            "bufferView" : 4,
            "componentType" : 5126,
            "count" : 44,
            "max" : [
                46.32013702392578,
                40.48998260498047,
                -5.440631866455078
            ],
            "min" : [
                46.093353271484375,
                40.22811508178711,
                -5.702497959136963
            ],
            "type" : "VEC3"
        },
        {
            "bufferView" : 5,
            "componentType" : 5126,
            "count" : 44,
            "type" : "VEC3"
        },
        {
            "bufferView" : 6,
            "componentType" : 5126,
            "count" : 44,
            "type" : "VEC2"
        },
        {
            "bufferView" : 7,
            "componentType" : 5123,
            "count" : 60,
            "type" : "SCALAR"
        },
        {
            "bufferView" : 8,
            "componentType" : 5126,
            "count" : 3670,
            "max" : [
                46.829254150390625,
                41.01401138305664,
                -4.235805034637451
            ],
            "min" : [
                45.544105529785156,
                39.6627311706543,
                -5.587088108062744
            ],
            "type" : "VEC3"
        },
        {
            "bufferView" : 9,
            "componentType" : 5126,
            "count" : 3670,
            "type" : "VEC3"
        },
        {
            "bufferView" : 10,
            "componentType" : 5126,
            "count" : 3670,
            "type" : "VEC2"
        },
        {
            "bufferView" : 11,
            "componentType" : 5123,
            "count" : 3702,
            "type" : "SCALAR"
        }
    ],
    "bufferViews" : [
        {
            "buffer" : 0,
            "byteLength" : 636,
            "byteOffset" : 0
        },
        {
            "buffer" : 0,
            "byteLength" : 636,
            "byteOffset" : 636
        },
        {
            "buffer" : 0,
            "byteLength" : 424,
            "byteOffset" : 1272
        },
        {
            "buffer" : 0,
            "byteLength" : 120,
            "byteOffset" : 1696
        },
        {
            "buffer" : 0,
            "byteLength" : 528,
            "byteOffset" : 1816
        },
        {
            "buffer" : 0,
            "byteLength" : 528,
            "byteOffset" : 2344
        },
        {
            "buffer" : 0,
            "byteLength" : 352,
            "byteOffset" : 2872
        },
        {
            "buffer" : 0,
            "byteLength" : 120,
            "byteOffset" : 3224
        },
        {
            "buffer" : 0,
            "byteLength" : 44040,
            "byteOffset" : 3344
        },
        {
            "buffer" : 0,
            "byteLength" : 44040,
            "byteOffset" : 47384
        },
        {
            "buffer" : 0,
            "byteLength" : 29360,
            "byteOffset" : 91424
        },
        {
            "buffer" : 0,
            "byteLength" : 7404,
            "byteOffset" : 120784
        }
    ],
    "buffers" : [
        {
            "byteLength" : 128188,
            "uri" : "data:application/octet-stream;base64,"
        }
    ]
}
