{
    "asset" : {
        "generator" : "Khronos glTF Blender I/O v1.5.17",
        "version" : "2.0"
    },
    "scene" : 0,
    "scenes" : [
        {
            "name" : "Scene",
            "nodes" : [
                0,
                1
            ]
        }
    ],
    "nodes" : [
        {
            "mesh" : 0,
            "name" : "model1.296",
            "rotation" : [
                0.7071068286895752,
                0,
                0,
                0.7071067094802856
            ],
            "scale" : [
                0.17083998024463654,
                0.17083998024463654,
                0.17083998024463654
            ],
            "translation" : [
                -61.429466247558594,
                -2.374816656112671,
                11.023069381713867
            ]
        },
        {
            "mesh" : 1,
            "name" : "model1.297",
            "rotation" : [
                0.7071068286895752,
                0,
                0,
                0.7071067094802856
            ],
            "scale" : [
                0.17083998024463654,
                0.17083998024463654,
                0.17083998024463654
            ],
            "translation" : [
                -61.429466247558594,
                -2.374816656112671,
                11.023069381713867
            ]
        }
    ],
    "materials" : [
        {
            "doubleSided" : true,
            "name" : "green",
            "pbrMetallicRoughness" : {
                "baseColorFactor" : [
                    0.03310477361083031,
                    0.2158605307340622,
                    0.005181523039937019,
                    1
                ],
                "metallicFactor" : 0.5,
                "roughnessFactor" : 0.5
            }
        },
        {
            "doubleSided" : true,
            "name" : "pink",
            "pbrMetallicRoughness" : {
                "baseColorFactor" : [
                    0.9559733867645264,
                    0.2225402593612671,
                    0.24692833423614502,
                    1
                ],
                "metallicFactor" : 0.5,
                "roughnessFactor" : 0.5
            }
        }
    ],
    "meshes" : [
        {
            "name" : "model1.296",
            "primitives" : [
                {
                    "attributes" : {
                        "POSITION" : 0,
                        "NORMAL" : 1,
                        "TEXCOORD_0" : 2
                    },
                    "indices" : 3,
                    "material" : 0
                }
            ]
        },
        {
            "name" : "model1.297",
            "primitives" : [
                {
                    "attributes" : {
                        "POSITION" : 4,
                        "NORMAL" : 5,
                        "TEXCOORD_0" : 6
                    },
                    "indices" : 7,
                    "material" : 1
                }
            ]
        }
    ],
    "accessors" : [
        {
            "bufferView" : 0,
            "componentType" : 5126,
            "count" : 686,
            "max" : [
                -147.61961364746094,
                9.0803804397583,
                28.68142318725586
            ],
            "min" : [
                -165.78038024902344,
                -9.0803804397583,
                4.823390960693359
            ],
            "type" : "VEC3"
        },
        {
            "bufferView" : 1,
            "componentType" : 5126,
            "count" : 686,
            "type" : "VEC3"
        },
        {
            "bufferView" : 2,
            "componentType" : 5126,
            "count" : 686,
            "type" : "VEC2"
        },
        {
            "bufferView" : 3,
            "componentType" : 5123,
            "count" : 1320,
            "type" : "SCALAR"
        },
        {
            "bufferView" : 4,
            "componentType" : 5126,
            "count" : 300,
            "max" : [
                -149.63552856445312,
                6.718716621398926,
                38.103145599365234
            ],
            "min" : [
                -163.7644805908203,
                -6.718716621398926,
                23.089370727539062
            ],
            "type" : "VEC3"
        },
        {
            "bufferView" : 5,
            "componentType" : 5126,
            "count" : 300,
            "type" : "VEC3"
        },
        {
            "bufferView" : 6,
            "componentType" : 5126,
            "count" : 300,
            "type" : "VEC2"
        },
        {
            "bufferView" : 7,
            "componentType" : 5123,
            "count" : 420,
            "type" : "SCALAR"
        }
    ],
    "bufferViews" : [
        {
            "buffer" : 0,
            "byteLength" : 8232,
            "byteOffset" : 0
        },
        {
            "buffer" : 0,
            "byteLength" : 8232,
            "byteOffset" : 8232
        },
        {
            "buffer" : 0,
            "byteLength" : 5488,
            "byteOffset" : 16464
        },
        {
            "buffer" : 0,
            "byteLength" : 2640,
            "byteOffset" : 21952
        },
        {
            "buffer" : 0,
            "byteLength" : 3600,
            "byteOffset" : 24592
        },
        {
            "buffer" : 0,
            "byteLength" : 3600,
            "byteOffset" : 28192
        },
        {
            "buffer" : 0,
            "byteLength" : 2400,
            "byteOffset" : 31792
        },
        {
            "buffer" : 0,
            "byteLength" : 840,
            "byteOffset" : 34192
        }
    ],
    "buffers" : [
        {
            "byteLength" : 35032,
            "uri" : "data:application/octet-stream;base64,"
        }
    ]
}
