{
    "asset" : {
        "generator" : "Khronos glTF Blender I/O v1.5.17",
        "version" : "2.0"
    },
    "scene" : 0,
    "scenes" : [
        {
            "name" : "Scene",
            "nodes" : [
                0,
                1
            ]
        }
    ],
    "nodes" : [
        {
            "mesh" : 0,
            "name" : "Cube.001_Cube.001",
            "rotation" : [
                -0.3904553949832916,
                -0.40406766533851624,
                0.6144386529922485,
                0.5538402199745178
            ],
            "scale" : [
                0.4106277823448181,
                0.4106278121471405,
                0.4106277823448181
            ],
            "translation" : [
                46.3950309753418,
                -59.804141998291016,
                18.31600570678711
            ]
        },
        {
            "mesh" : 1,
            "name" : "Cube.002_Cube.001",
            "rotation" : [
                -0.3904553949832916,
                -0.40406766533851624,
                0.6144386529922485,
                0.5538402199745178
            ],
            "scale" : [
                0.4106277823448181,
                0.4106278121471405,
                0.4106277823448181
            ],
            "translation" : [
                46.3950309753418,
                -59.804141998291016,
                18.31600570678711
            ]
        }
    ],
    "materials" : [
        {
            "doubleSided" : true,
            "name" : "green",
            "pbrMetallicRoughness" : {
                "baseColorFactor" : [
                    0.03310477361083031,
                    0.2158605307340622,
                    0.005181523039937019,
                    1
                ],
                "metallicFactor" : 0.5,
                "roughnessFactor" : 0.5
            }
        },
        {
            "doubleSided" : true,
            "name" : "santa_socks_white_mtl.002",
            "pbrMetallicRoughness" : {
                "metallicFactor" : 0.5,
                "roughnessFactor" : 0.5
            }
        }
    ],
    "meshes" : [
        {
            "name" : "Cube.001_Cube.001",
            "primitives" : [
                {
                    "attributes" : {
                        "POSITION" : 0,
                        "NORMAL" : 1,
                        "TEXCOORD_0" : 2
                    },
                    "indices" : 3,
                    "material" : 0
                }
            ]
        },
        {
            "name" : "Cube.002_Cube.001",
            "primitives" : [
                {
                    "attributes" : {
                        "POSITION" : 4,
                        "NORMAL" : 5,
                        "TEXCOORD_0" : 6
                    },
                    "indices" : 7,
                    "material" : 1
                }
            ]
        }
    ],
    "accessors" : [
        {
            "bufferView" : 0,
            "componentType" : 5126,
            "count" : 318,
            "max" : [
                135.08914184570312,
                1.3199659585952759,
                4.397417068481445
            ],
            "min" : [
                131.80148315429688,
                -6.224434852600098,
                -3.1987719535827637
            ],
            "type" : "VEC3"
        },
        {
            "bufferView" : 1,
            "componentType" : 5126,
            "count" : 318,
            "type" : "VEC3"
        },
        {
            "bufferView" : 2,
            "componentType" : 5126,
            "count" : 318,
            "type" : "VEC2"
        },
        {
            "bufferView" : 3,
            "componentType" : 5123,
            "count" : 474,
            "type" : "SCALAR"
        },
        {
            "bufferView" : 4,
            "componentType" : 5126,
            "count" : 387,
            "max" : [
                135.22381591796875,
                1.5424089431762695,
                -3.1598548889160156
            ],
            "min" : [
                131.66680908203125,
                -4.874398231506348,
                -5.089288234710693
            ],
            "type" : "VEC3"
        },
        {
            "bufferView" : 5,
            "componentType" : 5126,
            "count" : 387,
            "type" : "VEC3"
        },
        {
            "bufferView" : 6,
            "componentType" : 5126,
            "count" : 387,
            "type" : "VEC2"
        },
        {
            "bufferView" : 7,
            "componentType" : 5123,
            "count" : 546,
            "type" : "SCALAR"
        }
    ],
    "bufferViews" : [
        {
            "buffer" : 0,
            "byteLength" : 3816,
            "byteOffset" : 0
        },
        {
            "buffer" : 0,
            "byteLength" : 3816,
            "byteOffset" : 3816
        },
        {
            "buffer" : 0,
            "byteLength" : 2544,
            "byteOffset" : 7632
        },
        {
            "buffer" : 0,
            "byteLength" : 948,
            "byteOffset" : 10176
        },
        {
            "buffer" : 0,
            "byteLength" : 4644,
            "byteOffset" : 11124
        },
        {
            "buffer" : 0,
            "byteLength" : 4644,
            "byteOffset" : 15768
        },
        {
            "buffer" : 0,
            "byteLength" : 3096,
            "byteOffset" : 20412
        },
        {
            "buffer" : 0,
            "byteLength" : 1092,
            "byteOffset" : 23508
        }
    ],
    "buffers" : [
        {
            "byteLength" : 24600,
            "uri" : "data:application/octet-stream;base64,"
        }
    ]
}
